<?xml version="1.0"?>
<svg xmlns="http://www.w3.org/2000/svg" viewBox="0 0 64 64" width="512" height="512"><g id="Office"><path d="M61.263,12.035l-10.6-2.891L46.868,2.5A1,1,0,0,0,45.5,2.132L31.983,9.858,21,4H36a1,1,0,0,0,0-2H17a1.56,1.56,0,0,0-.332.057,1,1,0,0,0-.587.549l-2.81,6.556L2.737,12.035a1,1,0,0,0,.526,1.93l10.353-2.824L23.207,23.61A1,1,0,0,0,24,24h.034a1,1,0,0,0,.8-.445l1.6-2.395-4.42,32.706a1,1,0,0,0,.377.924l9,7a1,1,0,0,0,1.228,0l9-7a1,1,0,0,0,.377-.924L37.571,21.16l1.6,2.395a1,1,0,0,0,.8.445H40a1,1,0,0,0,.793-.39l9.591-12.469,10.353,2.824a1,1,0,1,0,.526-1.93ZM23.942,21.284,15.15,9.855l2.34-5.46,13.066,6.968ZM32,59.733l-7.932-6.169,4.06-30.045,2.261.882a5.007,5.007,0,0,0,3.423.078l2.093-.71,4.027,29.8Zm3.633-37.984-2.462.835a3,3,0,0,1-2.056-.046L28.4,21.479l.556-4.117L32,12.8l3.04,4.559Zm4.425-.465-6.631-9.947,12.2-6.973L48.8,9.918Z"/><path d="M52.918,60a1,1,0,0,1-.452-.108l-5.918-3a1,1,0,0,1,.9-1.784l5.472,2.774L58,55.378V44a1,1,0,0,1,2,0V56a1,1,0,0,1-.558.9l-6.082,3A1,1,0,0,1,52.918,60Z"/><path d="M61,42H46a1,1,0,0,1,0-2H60V38H44a1,1,0,0,1,0-2H61a1,1,0,0,1,1,1v4A1,1,0,0,1,61,42Z"/><path d="M20,60H3a1,1,0,0,1-1-1V19a1,1,0,0,1,2,0V58H20a1,1,0,0,1,0,2Z"/></g></svg>
